<svg xmlns="http://www.w3.org/2000/svg" viewBox="0 0 1200 900" role="img" aria-labelledby="title desc">
  <title id="title">Arcata dentale prima dell'impianto</title>
  <desc id="desc">Illustrazione clinica di un dente mancante prima della riabilitazione implantare.</desc>
  <defs>
    <linearGradient id="bg" x1="0" y1="0" x2="1" y2="1">
      <stop offset="0" stop-color="#ffffff"/>
      <stop offset="1" stop-color="#f3f9fc"/>
    </linearGradient>
    <linearGradient id="gum" x1="0" y1="0" x2="0" y2="1">
      <stop offset="0" stop-color="#f5aaa4"/>
      <stop offset="1" stop-color="#ed8e8a"/>
    </linearGradient>
    <radialGradient id="tooth" cx=".45" cy=".18" r=".78">
      <stop offset="0" stop-color="#ffffff"/>
      <stop offset=".58" stop-color="#f4f4f2"/>
      <stop offset="1" stop-color="#d9dddf"/>
    </radialGradient>
    <filter id="softShadow" x="-20%" y="-20%" width="140%" height="150%">
      <feDropShadow dx="0" dy="18" stdDeviation="18" flood-color="#0e384c" flood-opacity=".14"/>
    </filter>
  </defs>
  <rect width="1200" height="900" fill="url(#bg)"/>
  <path d="M0 515c128-54 218-42 310-5 88 36 161 36 250 1 94-37 177-46 302-2 121 43 229 46 338 1v390H0Z" fill="url(#gum)"/>
  <path d="M0 560c118-43 216-35 309-1 90 33 167 33 257 0 91-34 179-39 300-2 119 37 222 39 334-2v345H0Z" fill="#f4b4ae" opacity=".38"/>
  <g filter="url(#softShadow)">
    <path d="M-54 200c52-53 131-66 192-29 71 44 82 145 56 221-18 53-54 83-59 152-5 65 21 119-2 143-24 25-73-16-94-65-22-51-7-102-31-106-21-3-37 34-64 77-25 40-69 77-95 58-24-18-12-80-3-129 12-69-33-101-49-169-16-68 1-121 149-153Z" fill="url(#tooth)"/>
    <path d="M994 196c58-47 143-52 199-9 61 47 61 145 29 216-23 51-62 76-73 144-10 61 9 116-16 138-26 24-72-17-88-65-17-50 2-96-21-101-21-5-39 31-70 71-29 37-76 70-100 48-22-20-4-78 9-125 18-65-22-99-32-166-10-68 12-121 163-151Z" fill="url(#tooth)"/>
    <path d="M188 160c77-59 190-56 260 1 76 62 87 178 54 270-22 62-66 93-75 175-8 76 19 141-11 168-33 30-91-18-113-77-22-59-2-116-29-122-25-6-48 38-87 86-37 45-96 83-125 57-27-25-8-95 6-151 20-79-29-119-40-202-11-82 17-151 160-205Z" fill="url(#tooth)"/>
    <path d="M750 158c78-58 191-53 260 5 74 62 83 178 49 269-23 61-68 91-78 173-9 75 16 141-14 168-34 29-90-20-111-78-21-60 1-116-26-123-25-6-48 37-88 85-37 44-97 82-125 55-27-25-7-95 8-151 21-78-27-119-37-202-9-82 20-151 162-201Z" fill="url(#tooth)"/>
  </g>
  <g opacity=".96">
    <path d="M504 476c33-36 64-53 98-53 36 0 68 20 99 56 13 15 20 37 10 55-22 41-69 61-111 60-44-1-91-23-111-65-8-17 2-39 15-53Z" fill="#f2a29d"/>
    <path d="M468 517c82 42 174 42 265 0" fill="none" stroke="#d9827d" stroke-width="20" stroke-linecap="round"/>
    <ellipse cx="600" cy="505" rx="62" ry="28" fill="#f7c8c3" opacity=".7"/>
  </g>
  <path d="M493 503c26-45 62-67 108-67 48 0 84 24 109 70" fill="none" stroke="#d68a85" stroke-width="9" stroke-linecap="round" opacity=".45"/>
</svg>
